<svg width="687" height="676" viewBox="0 0 687 676" fill="none" xmlns="http://www.w3.org/2000/svg">
<path d="M658.06 185.159V490.813L393.354 643.642L128.649 490.813V185.159L393.354 32.3311L658.06 185.159Z" stroke="#5E646B" stroke-width="56"/>
<rect width="148.49" height="368.495" rx="14.5169" transform="matrix(0.867762 -0.496979 0 1 279 174.796)" fill="#535FF4"/>
<path d="M445.539 146.441C473.334 130.522 495.867 143.427 495.867 175.264V399.762C495.867 431.6 473.334 470.314 445.539 486.233L393.255 516.177C365.459 532.095 342.927 519.191 342.927 487.353V262.855C342.927 231.018 365.459 192.304 393.255 176.385L445.539 146.441Z" fill="#F5F5F5"/>
<rect width="136.248" height="300.035" rx="14.5169" transform="matrix(0.867762 -0.496979 0 1 360.279 215.148)" fill="#67DFAB"/>
<path d="M515.408 203.094C542.244 187.725 564 200.184 564 230.924V367.23C564 397.969 542.244 435.348 515.408 450.718L456.647 484.371C429.81 499.741 408.054 487.281 408.054 456.542V320.236C408.054 289.497 429.81 252.117 456.647 236.748L515.408 203.094Z" fill="#F5F5F5"/>
<rect width="139.712" height="207.867" rx="13.7528" transform="matrix(0.867762 -0.496979 0 1 425.408 274.516)" fill="#FF5C2E"/>
<path d="M685.5 470.072L611.5 634L572.5 572.5L545 523.5L510 458.5L685.5 470.072Z" fill="#002B43"/>
<path d="M0 564.5L36 611.5L157.5 539L393.5 676L572.5 572.5L545 523.5L393.5 611.5L157.5 475L0 564.5Z" fill="#002B43"/>
</svg>
