<svg width="40" height="40" viewBox="0 0 40 40" fill="none" xmlns="http://www.w3.org/2000/svg">
<path d="M34.1331 30.5541L27.0664 35.8875V27.0875H28.9334L27.0664 24.3641V18.6958H34.1331V30.5541Z" fill="#D9D9D9"/>
<path d="M34.1331 30.5541L27.0664 35.8875V27.0875H28.9334L27.0664 24.3641V18.6958H34.1331V30.5541Z" fill="#00A88B"/>
<path d="M23.5325 24.3641L21.6655 27.0875H23.5325V37.2208H16.4658V27.0875H18.3328L16.4658 24.3641V9.19995H23.5325V24.3641Z" fill="#FF3B55"/>
<path d="M12.9329 24.3641L11.0659 27.0875H12.9329V35.8875L5.86621 30.5541V13.8375H12.9329V24.3641Z" fill="#535FF4"/>
<path d="M35.7334 10.9229V29.0762L20 38.1523L4.2666 29.0752V10.9238L20 1.84668L35.7334 10.9229Z" stroke="#012A43" stroke-width="3.2"/>
</svg>
