<svg width="163" height="150" viewBox="0 0 163 150" fill="none" xmlns="http://www.w3.org/2000/svg">
<g clip-path="url(#clip0_398_674)">
<rect width="163" height="150" fill="white"/>
<path d="M54.5303 47.6608L34.8369 66.6784L8.52062 59.1324L1.89764 32.5688L21.591 13.5512L47.9066 21.0979L54.5303 47.6608Z" stroke="#F7F8F9" stroke-width="4"/>
<path d="M132.957 47.6608L113.264 66.6784L86.9474 59.1324L80.3244 32.5688L100.018 13.5512L126.333 21.0979L132.957 47.6608Z" stroke="#F7F8F9" stroke-width="4"/>
<path d="M82.5303 125.661L62.8369 144.678L36.5206 137.132L29.8976 110.569L49.591 91.5512L75.9066 99.0979L82.5303 125.661Z" stroke="#F7F8F9" stroke-width="4"/>
<path d="M160.957 125.661L141.264 144.678L114.947 137.132L108.324 110.569L128.018 91.5512L154.333 99.0979L160.957 125.661Z" stroke="#F7F8F9" stroke-width="4"/>
</g>
<defs>
<clipPath id="clip0_398_674">
<rect width="163" height="150" fill="white"/>
</clipPath>
</defs>
</svg>
